<svg width="169" height="105" viewBox="0 0 169 105" fill="none" xmlns="http://www.w3.org/2000/svg">
<path fill-rule="evenodd" clip-rule="evenodd" d="M44.2452 12.4816C43.1356 12.4816 42.0877 12.7362 41.1489 13.1867C40.9745 5.874 35.0584 -2.48867e-06 27.7807 -2.48867e-06C21.5317 -2.48867e-06 16.2831 4.33383 14.8142 10.1918C13.2678 9.01665 11.3444 8.32045 9.26084 8.32045C4.14606 8.32045 2.88907e-08 12.5118 2.88907e-08 17.6825C2.88907e-08 22.8532 4.14606 27.0446 9.26084 27.0446H44.2452C48.224 27.0446 51.4489 23.7844 51.4489 19.7622C51.4489 15.7417 48.224 12.4816 44.2452 12.4816Z" transform="translate(0 77.9551)" fill="#F1F1F1"/>
<path fill-rule="evenodd" clip-rule="evenodd" d="M75.0572 25.597C74.0444 25.597 73.0739 25.7804 72.1757 26.1152C72.5403 24.5465 72.7411 22.912 72.7411 21.2311C72.7411 9.50452 63.3376 -4.51003e-07 51.7377 -4.51003e-07C40.9217 -4.51003e-07 32.0184 8.26704 30.8665 18.8897C28.7565 17.362 26.1727 16.4575 23.3811 16.4575C16.4293 16.4575 10.7685 22.0342 10.529 29.0032C9.5127 28.4334 8.34321 28.1094 7.09974 28.1094C3.17736 28.1094 1.82751e-06 31.3232 1.82751e-06 35.2867C1.82751e-06 39.2484 3.17736 42.4641 7.09974 42.4641H75.0572C79.6647 42.4641 83.3986 38.6875 83.3986 34.0297C83.3986 29.3718 79.6647 25.597 75.0572 25.597Z" transform="translate(85.6014 54.23)" fill="#F1F1F1"/>
<path fill-rule="evenodd" clip-rule="evenodd" d="M2.96248 4.42286L0.593552 5.03536L-7.47127e-07 0.610728L2.36893 -1.32584e-06L2.96248 4.42286Z" transform="translate(51.6268 66.4497)" fill="white"/>
<path fill-rule="evenodd" clip-rule="evenodd" d="M4.65155 13.792L5.36839 13.3772C5.82104 13.1137 6.10109 12.6294 6.10461 12.1005L6.14336 6.67702L7.90289 4.17893L6.40755 3.47561L5.14119 2.80383e-06L0.956378 0.927663L1.51038e-06 1.13064L1.12018 4.99441L2.08536 4.85909L4.65155 13.792Z" transform="translate(46.4856 67.0601)" fill="#704322"/>
<path fill-rule="evenodd" clip-rule="evenodd" d="M4.18129 2.05397e-06L5.70128 2.1776L1.51999 4.48339L-2.47251e-07 2.3058L4.18129 2.05397e-06Z" transform="translate(104.571 59.6646)" fill="white"/>
<path fill-rule="evenodd" clip-rule="evenodd" d="M-6.45002e-07 3.01445L2.00258 5.90961L2.39359 5.63718C2.74584 5.38969 2.83919 4.90894 2.61022 4.54571L1.57107 2.89516L4.39617 0.991759L1.88457 8.42235e-07L0.510774 1.1894L-6.45002e-07 3.01445Z" transform="translate(48.8514 18.2114)" fill="#B48F75"/>
<path fill-rule="evenodd" clip-rule="evenodd" d="M7.12792 3.53205C7.05747 3.27565 6.80208 3.11718 6.54317 3.16882L4.56525 3.56944L4.23061 3.64066C4.23061 3.64066 4.7528 3.76147 5.63345 1.98094C6.51409 0.200398 4.88352 0.00658373 4.88352 0.00658373H4.64803C4.6204 0.0042687 4.5928 0.00256904 4.56525 0.00147707C3.95713 -0.0226266 3.3733 0.249363 2.99418 0.734824L-6.66502e-07 4.58079L2.19104 7.33172L2.93958 6.61772L3.80613 6.46638C4.0897 6.41652 4.3627 6.30969 4.60223 6.153C4.84529 5.99275 5.01438 5.73814 5.09716 5.45681L5.33141 4.66625L6.80561 4.1499C7.05747 4.06087 7.19837 3.79201 7.12792 3.53205Z" transform="translate(101.805 6.03125)" fill="#D8B094"/>
<path fill-rule="evenodd" clip-rule="evenodd" d="M2.2717 0C1.50378 0.103271 0.477308 0.344784 0.0123289 1.12288L0 1.14247L2.2717 0.890269V0Z" transform="translate(104.286 8.90283)" fill="#B48F75"/>
<path fill-rule="evenodd" clip-rule="evenodd" d="M25.9349 0.0694414L25.7429 3.55912e-07L19.5978 7.01176L8.53166 6.71263L7.19485 11.2583L5.49345 11.0251L2.04251e-06 32.6284C2.04251e-06 32.6284 8.72364 30.7713 11.1718 31.7951C12.8433 23.7203 11.6914 16.6943 10.9552 13.5161L19.6101 12.8128C20.5806 12.7326 21.4894 12.2946 22.1587 11.5806L29.6688 3.42576C28.8974 1.86244 27.5606 0.662361 25.9349 0.0694414Z" transform="translate(75.5348 9.80908)" fill="black"/>
<path fill-rule="evenodd" clip-rule="evenodd" d="M12.6267 5.07988C12.6566 4.94456 12.4893 4.70418 12.4893 4.70418C12.4893 4.70418 12.2268 4.87155 12.1264 4.99263C7.54006 4.04004 7.30581 2.8799e-07 7.30581 2.8799e-07C7.30581 2.8799e-07 4.89813 3.32961 4.81359 3.4578C4.74138 3.56642 5.91087 5.55706 7.25473 6.84973L-3.32176e-06 25.1893L7.05218 26.8968L8.42951 23.772C10.7262 18.5657 11.9574 12.9445 12.0507 7.24501L12.0701 6.09835C12.2832 5.69594 12.4822 5.32381 12.6267 5.07988Z" transform="translate(72.0318 16.2241)" fill="white"/>
<path fill-rule="evenodd" clip-rule="evenodd" d="M23.8799 3.01687C23.8799 3.01687 23.8676 3.13261 23.8359 3.35161C23.6034 5.01286 22.3846 12.5552 18.7282 19.4958C12.141 21.1196 0.963871 23.5839 0.963871 23.5839C0.963871 23.5839 -0.217949 20.8525 0.0356765 18.8013C5.61014 16.6683 11.8856 13.9458 11.8856 13.9458C11.8856 13.9458 12.2255 6.43195 10.8729 0.711076C18.0519 -0.656377 24.5563 0.369211 24.5563 0.369211L23.8799 3.01687Z" transform="translate(53.0076 47.5757)" fill="black"/>
<path fill-rule="evenodd" clip-rule="evenodd" d="M-1.6125e-06 3.11594L0.435039 8.2795C0.753831 12.056 4.07385 14.8337 7.80425 14.4384L25.9314 12.3391C32.7722 16.0106 40.3739 25.4884 40.3739 25.4884C40.3739 25.4884 45.3584 22.6698 46.3711 20.9623C42.7411 16.0961 30.4191 5.64609 30.4191 5.64609C29.8696 5.11905 29.1405 4.82882 28.3831 4.83772L17.0193 4.86621L16.9348 3.4578L3.63353 -2.11917e-07L-1.6125e-06 3.11594Z" transform="translate(62.6132 38.5957)" fill="#021760"/>
<path fill-rule="evenodd" clip-rule="evenodd" d="M8.84693 0.000141627C5.14119 -0.0247859 1.83878 3.24606 0.998645 6.89439C0.619969 8.53782 1.09376 10.9807 2.22626 13.0942L1.12875e-06 17.2162L2.71942 20.43C3.6441 21.5197 5.38601 21.2135 5.88973 19.871L6.14336 19.1961C6.44454 18.3967 7.14906 17.8216 7.98743 17.6969L9.20624 17.5153L9.20095 17.4975C11.6298 17.5046 14.9357 15.806 15.9114 12.252C16.1158 11.506 16.3958 10.2026 16.4645 9.63463C17.1743 3.73571 13.62 0.0321913 8.84693 0.000141627Z" transform="translate(77.3956 2.93506)" fill="#D8B094"/>
<path fill-rule="evenodd" clip-rule="evenodd" d="M8.25162 1.90243C8.29565 1.52852 8.32383 1.16351 8.33616 0.807403C7.70562 0.324878 6.47801 -0.333922 4.88052 0.196679C4.44725 0.342683 4.24294 0.848356 4.43844 1.265L5.4001 3.31262C5.65725 3.86103 5.21693 4.48065 4.62161 4.40943L3.7621 4.30794C3.46444 4.27233 3.19497 4.48778 3.15798 4.78869L2.83214 7.50579C2.87089 8.51357 2.14877 9.3896 1.16069 9.52848L1.79525e-06 9.69229C0.167324 9.71188 0.361066 9.73146 0.609407 9.75283C3.05759 9.95047 6.67175 8.26074 7.69857 4.51983C7.90288 3.77378 8.18293 2.47043 8.25162 1.90243Z" transform="translate(85.6088 10.6675)" fill="#B48F75"/>
<path fill-rule="evenodd" clip-rule="evenodd" d="M1.42978 0.809735C1.38575 1.20858 1.02645 1.49346 0.633679 1.44539C0.239151 1.40087 -0.0408902 1.03942 0.00490317 0.640583C0.0506966 0.243523 0.406476 -0.041363 0.801003 0.00493098C1.19377 0.051225 1.47557 0.410894 1.42978 0.809735Z" transform="translate(84.9485 10.8667)" fill="black"/>
<path fill-rule="evenodd" clip-rule="evenodd" d="M1.43152 0.809734C1.38573 1.20857 1.02819 1.49346 0.633659 1.44717C0.240892 1.40087 -0.040917 1.03942 0.00487637 0.642363C0.0506698 0.243522 0.406448 -0.0413638 0.802737 0.00493019C1.1955 0.0512242 1.47555 0.412674 1.43152 0.809734Z" transform="translate(91.5757 11.6509)" fill="black"/>
<path fill-rule="evenodd" clip-rule="evenodd" d="M11.6086 1.85275L9.74519 0.629521L9.38589 1.53225C9.38589 1.53225 7.23712 -0.0969385 3.73569 0.00455223C4.22709 0.921529 4.25702 2.12873 4.25702 2.12873C4.25702 2.12873 1.51646 2.54004 -1.6555e-06 5.87677L1.22762 7.23176L5.70128 7.94575C5.95842 7.55938 6.03769 7.05905 5.87741 6.5872L5.77525 6.28629C5.49873 5.46902 5.9549 4.5841 6.77566 4.34372C6.77566 4.34372 8.29037 3.79888 8.92267 4.45768L9.80507 5.23399C10.8266 6.1296 12.2603 6.35751 13.5055 5.83225C13.9934 6.47681 14.3879 7.21395 14.6645 8.04546C14.9058 7.34215 15.5874 4.43987 11.6086 1.85275Z" transform="translate(78.8048)" fill="black"/>
<path fill-rule="evenodd" clip-rule="evenodd" d="M2.81806 6.23723C1.94622 6.11437 1.34739 5.2882 1.49181 4.41217L1.60805 3.49876C1.73486 2.72779 2.46051 2.21143 3.22139 2.35031C3.85721 2.46783 4.30634 3.00911 4.34861 3.63052L3.86954 6.38501L2.81806 6.23723ZM0.975749 -8.2865e-08C0.41566 1.23747 0.0211375 2.87379 2.11776e-06 5.04605C0.0722148 8.45044 1.52704 8.86352 1.52704 8.86352L1.77009 8.57329C2.76874 8.0142 3.44155 7.33048 3.89068 6.47048L4.90342 6.63607L5.7823 2.37346H5.78406L5.88093 2.29511C6.17155 2.17582 6.515 2.31648 6.67703 2.07077C6.69465 2.04228 6.70521 2.01023 6.72282 1.98174C4.60047 0.292008 1.62566 0.0373912 0.975749 -8.2865e-08Z" transform="translate(77.8292 5.87646)" fill="#737373"/>
<path fill-rule="evenodd" clip-rule="evenodd" d="M3.07675 1.006C3.02567 1.006 2.97283 0.989976 2.9288 0.957927C2.3053 0.494987 1.49864 0.384593 0.772988 0.662357L0.343235 0.827947C0.2129 0.879583 0.0667109 0.813704 0.0173949 0.680163C-0.0336823 0.548403 0.0314855 0.400618 0.163582 0.348983L0.595095 0.185173C1.48102 -0.15491 2.46382 -0.0213691 3.22822 0.543062C3.33918 0.626747 3.3656 0.786995 3.28282 0.900949C3.2335 0.96861 3.156 1.006 3.07675 1.006Z" transform="translate(83.957 9.30957)" fill="black"/>
<path fill-rule="evenodd" clip-rule="evenodd" d="M3.03367 1.21917C2.97026 1.21917 2.90862 1.19603 2.85754 1.14795C2.29745 0.60845 1.51368 0.394785 0.761616 0.574619L0.312487 0.683232C0.176868 0.715282 0.0394882 0.629816 0.00602376 0.492715C-0.0239181 0.353833 0.0606199 0.216732 0.196239 0.182901L0.643608 0.0760692C1.56476 -0.142937 2.5229 0.117021 3.20804 0.777601C3.3102 0.87553 3.31371 1.03756 3.21684 1.14083C3.16753 1.19247 3.1006 1.21917 3.03367 1.21917Z" transform="translate(90.7545 10.4409)" fill="black"/>
<path fill-rule="evenodd" clip-rule="evenodd" d="M-2.99926e-06 0.178054L0.0827789 -7.8518e-07C0.0827789 -7.8518e-07 1.40727 0.575114 2.31785 0.640994C3.22844 0.708655 4.13197 0.585797 4.13197 0.585797L4.09146 0.881367C3.89244 1.46182 2.89908 1.54551 2.06951 1.47785C1.44954 1.42799 0.165558 0.89205 -2.99926e-06 0.178054Z" transform="translate(86.5984 15.8579)" fill="white"/>
<path fill-rule="evenodd" clip-rule="evenodd" d="M26.2889 13.615C26.1885 10.4616 25.6707 7.23352 24.5717 5.8073C24.8711 5.39244 25.086 5.09687 25.086 5.09687L25.123 5.37107L25.4101 4.9117L25.1829 4.41492C24.385 4.49149 23.5995 4.66776 22.8368 4.92594C22.8192 4.91882 22.8034 4.90635 22.7875 4.89923L12.5227 0.348174C11.436 -0.134352 10.1961 -0.114766 9.12522 0.40337L-1.93501e-07 4.8832L2.55386 9.47165L10.7262 6.20614L16.7216 9.3114C13.8437 12.26 10.9781 16.414 9.29254 22.1313C7.85533 26.9993 4.47543 30.2416 4.47543 30.2416C4.47543 30.2416 8.44536 39.4221 18.6661 33.0175C18.6661 33.0175 21.9104 26.3957 24.9116 20.5911C26.0318 18.426 26.4932 16.0027 26.2889 13.615Z" transform="translate(54.2518 11.1279)" fill="black"/>
<path fill-rule="evenodd" clip-rule="evenodd" d="M13.185 6.49006L11.2828 7.34828C9.71701 8.03201 7.93107 7.95901 6.42341 7.1542L-2.28976e-06 3.7142L0.847181 -1.14109e-07L5.93377 1.76273L9.13578 5.23834L15.2545 4.52613L16.0136 3.39549L17.007 3.60737L16.542 4.46203C16.4715 4.68994 13.4016 6.39569 13.185 6.49006Z" transform="translate(66.5112 18.208)" fill="#BA3615"/>
<path fill-rule="evenodd" clip-rule="evenodd" d="M6.78447 6.6292e-07L6.17154 1.66658L2.51551e-06 2.85776L0.671046 3.51656C1.56402 4.39437 2.89379 4.64186 4.03511 4.14153L7.62108 2.57644C7.83772 2.48385 8.00152 2.29867 8.07197 2.07255L8.52638 0.619627C8.11424 0.498551 7.45728 0.338303 6.90952 0.0747829L6.78447 6.6292e-07Z" transform="translate(75.6464 20.5889)" fill="#DF6C47"/>
<path fill-rule="evenodd" clip-rule="evenodd" d="M5.15176 1.41222H3.27876e-06C3.27876e-06 1.41222 1.39318 -0.0620674 5.06722 0.00203194C5.13062 0.963523 5.15176 1.41222 5.15176 1.41222Z" transform="translate(74.4807 42.0503)" fill="black"/>
<path fill-rule="evenodd" clip-rule="evenodd" d="M-3.22501e-07 1.28683L5.63787 1.15863C5.63787 1.15863 2.15581 -1.53176 -3.22501e-07 1.28683Z" transform="translate(89.1769 49.2837)" fill="black"/>
<path fill-rule="evenodd" clip-rule="evenodd" d="M10.499 4.6472L9.65888 3.83172L9.70292 3.30824C9.81212 1.95859 9.03011 0.699752 7.7796 0.215446L7.22127 1.03242e-07L1.72782 0.236812L-1.10188e-06 4.20563L0.54952 6.98327L1.15188 6.83905C1.5834 6.73578 1.89162 6.35296 1.90571 5.90783L1.96207 3.96704L3.21787 7.14174L3.68108 7.02422C4.12317 6.91205 4.39969 6.46692 4.30458 6.01466L3.84665 3.80857L4.47366 2.85598L6.28603 3.77296C6.7422 4.00443 7.23888 4.12373 7.74261 4.15222C7.74085 4.28398 7.7655 4.4193 7.82363 4.5475L7.83243 4.56708C7.96981 4.86621 8.2023 5.11193 8.49292 5.26505L9.61133 5.85263C9.93541 6.03781 10.3423 5.9559 10.5712 5.66033C10.809 5.35408 10.7773 4.91607 10.499 4.6472Z" transform="translate(47.6352 16.2666)" fill="#D8B094"/>
<path fill-rule="evenodd" clip-rule="evenodd" d="M13.937 0.932719L13.2449 0.361168C12.8098 0.00149914 12.218 -0.0982108 11.6932 0.101209L6.27017 2.14883L3.10514 1.31732L2.97657 3.11032L-1.118e-06 5.73484L2.53273 9.64134L3.10514 10.5387L6.52556 7.91243L6.01831 6.97943L13.937 0.932719Z" transform="translate(106.091 58.4121)" fill="#704322"/>
<path fill-rule="evenodd" clip-rule="evenodd" d="M2.05718 1.03984C2.05718 1.61317 1.59749 2.07967 1.02859 2.07967C0.459697 2.07967 -1.42438e-06 1.61317 -1.42438e-06 1.03984C-1.42438e-06 0.464721 0.459697 1.22803e-06 1.02859 1.22803e-06C1.59749 1.22803e-06 2.05718 0.464721 2.05718 1.03984Z" transform="translate(39.5632 72.6519)" fill="white"/>
<path fill-rule="evenodd" clip-rule="evenodd" d="M1.17829 6.75202C1.13778 6.76271 1.09199 6.76983 1.04972 6.77517C0.531902 6.83037 0.0686842 6.45111 0.0158456 5.92763C0.00527793 5.83682 -0.199029 3.69306 1.22937 1.98553C2.22274 0.796126 3.71455 0.12842 5.66957 0.00200169C6.18739 -0.0318285 6.63475 0.367013 6.66822 0.890491C6.70168 1.41397 6.30892 1.86801 5.78934 1.90006C4.36798 1.99443 3.31649 2.43422 2.66834 3.21232C1.7648 4.29132 1.88457 5.71575 1.88633 5.72999C1.93565 6.20718 1.62742 6.63985 1.17829 6.75202Z" transform="translate(40.3442 77.6074)" fill="white"/>
</svg>
